<svg width="734" height="642" viewBox="0 0 734 642" fill="none" xmlns="http://www.w3.org/2000/svg" xmlns:xlink="http://www.w3.org/1999/xlink">
<rect width="734" height="642" fill="url(#pattern0)"/>
<defs>
<pattern id="pattern0" patternContentUnits="objectBoundingBox" width="1" height="1">
<use xlink:href="#image0" transform="translate(-0.00566247) scale(0.00136666 0.0015625)"/>
</pattern>
<image id="image0" width="740" height="640" xlink:href="data:image/home.png"/>
</defs>
<path d="M224 534.653L444.8 542.678L514 528.935V550.703L445.5 570.465L224 559.43V534.653Z" fill="#3595F6" fill-opacity="0.75"/>
<path d="M224 534.273V507L444.3 510.6L514 507V528.818L444.7 543L224 534.273Z" fill="#3595F6" fill-opacity="0.75"/>
<path d="M224 505.833V480H443.476H512V503.767L444.469 511L224 505.833Z" fill="#3595F6" fill-opacity="0.75"/>
<path d="M224 480.494V455.416L445.3 451.704L513 458.425V480.494H445" fill="#3595F6" fill-opacity="0.75"/>
<path d="M224 455.412V429.331L445.5 426.021L514 437.055V458.422L445 451.701L224 455.412Z" fill="#3595F6" fill-opacity="0.75"/>
<path d="M224 429.328V405.554L445 393.216L516 416.288V437.654L445 425.316L224 429.328Z" fill="#3595F6" fill-opacity="0.75"/>
<path d="M224 406.259V381.181L446.2 364.83L516 393.52V414.284L445.7 392.517L224 406.259Z" fill="#3595F6" fill-opacity="0.75"/>
<path d="M224 381.181V356.103L446.5 335.74L516 372.454V393.219L444 364.429L224 381.181Z" fill="#3595F6" fill-opacity="0.75"/>
<path d="M224 356.1V332.025L447 307.248L516 351.385V373.153L446.7 335.034L224 356.1Z" fill="#3595F6" fill-opacity="0.75"/>
<path d="M224 332.022V307.947L446.5 279.157L516 330.317V351.081L445.7 308.649L224 332.022Z" fill="#3595F6" fill-opacity="0.75"/>
<path d="M224 307.947V283.872L446.3 250.769L517 310.254V330.016L447 279.157L224 307.947Z" fill="#3595F6" fill-opacity="0.75"/>
<path d="M224 283.869V259.794L445.2 224.684L515 288.884V309.95L446.3 251.468L224 283.869Z" fill="#3595F6" fill-opacity="0.75"/>
<path d="M224 159.481V133.4L446 76.5228L515 178.541V199.606L445.7 107.62L224 159.481Z" fill="#3595F6" fill-opacity="0.75"/>
<path d="M224 259.794V234.716L446.3 196.597L515 267.117V287.881L446 223.681L224 259.794Z" fill="#3595F6" fill-opacity="0.75"/>
<path d="M224 235.712V210.634L444.8 166.798L515 246.045V268.816L446 195.287L224 235.712Z" fill="#3595F6" fill-opacity="0.75"/>
<path d="M224 210.638V185.559L444 137.409L514 222.675V245.747L443.3 166.199L224 210.638Z" fill="#3595F6" fill-opacity="0.75"/>
<path d="M224 185.559V160.481L443.8 108.319L515 200.907V223.678L445.3 137.108L224 185.559Z" fill="#3595F6" fill-opacity="0.75"/>

</svg>
